<svg width="113" height="113" viewBox="0 0 113 113" fill="none" xmlns="http://www.w3.org/2000/svg">
<g clip-path="url(#clip0_16_94)">
<path fill-rule="evenodd" clip-rule="evenodd" d="M27.8708 60.2428C28.4669 60.0597 29.2085 60.3366 29.6216 60.9139C29.753 61.0923 29.7905 61.3458 29.8375 61.5711C29.8516 61.6368 29.7436 61.7259 29.6497 61.8057C29.0677 61.3458 28.5233 60.8952 27.9882 60.4399C27.9366 60.393 27.9131 60.3132 27.8708 60.2428ZM39.4078 44.1765C40.323 44.0263 41.2383 43.8949 42.1676 43.9418C42.4037 43.9499 42.6376 43.991 42.8623 44.0638C43.8104 44.3971 44.7491 44.7538 45.6832 45.1152C45.8146 45.1621 45.9178 45.2842 46.0352 45.3733L45.9742 45.5001C45.5653 45.3669 45.1585 45.2277 44.7538 45.0823C44.2141 44.904 43.7541 44.7209 43.2753 44.6224C42.1019 44.3877 42.1019 44.4065 41.9048 44.5567L44.5989 45.2325C45.8897 45.885 47.1804 46.528 48.4618 47.1898C48.6589 47.293 48.8842 47.4573 48.964 47.6498C49.086 47.9314 49.2597 48.0065 49.5132 47.9877C49.8229 47.9595 50.1327 47.9079 50.5129 47.861L50.3252 48.2646C50.5645 48.6401 50.9917 48.3585 51.339 48.565C50.9917 49.1752 50.1797 48.9874 49.7713 49.499L50.0576 49.8464L49.4944 50.2547C49.4944 50.7522 49.316 51.0432 48.0581 51.3953L48.1802 51.7942L47.2602 51.9914L47.5888 52.5734H46.4154L46.3825 53.2164C46.0023 53.1695 45.6268 53.1319 45.2373 53.0897L44.9885 53.667C44.8618 53.6294 44.7444 53.6154 44.6459 53.559C44.3314 53.3807 44.0451 53.2962 43.7306 53.5872C43.6414 53.667 43.4349 53.6529 43.2941 53.6247C43.1721 53.5966 43.0594 53.4886 42.9656 53.4276C42.4493 53.8735 42.4493 53.8735 41.9893 53.4417C41.7217 53.6576 41.426 53.789 41.1163 53.4933C40.8206 53.6201 40.5389 53.3995 40.2808 53.4276C39.9522 53.4605 39.8255 53.2633 39.6565 53.0991L39.0464 53.2539C38.9854 52.1462 38.1358 52.3622 37.4505 52.3011C37.474 51.9632 37.6852 51.8693 37.8964 51.8599C38.1493 51.8517 38.4016 51.8866 38.6427 51.9632C39.4125 52.1979 40.1447 52.5264 40.9708 52.6109C41.9236 52.7095 42.8717 52.747 43.7916 52.5405C45.0354 52.2636 46.2323 51.8412 47.11 50.8273C47.34 50.5645 47.4996 50.2313 47.6592 49.9121C47.7484 49.7337 47.7531 49.5178 47.5653 49.3676C47.0251 48.9357 46.42 48.5919 45.7723 48.3491C45.885 48.9123 45.6268 49.2033 45.2326 49.3864C45.2326 49.4521 45.2138 49.5037 45.2326 49.5272C45.6081 50.067 45.6268 50.2782 45.1997 50.7804C44.8958 51.1469 44.5527 51.479 44.1765 51.7708C43.736 52.1138 43.1833 52.2799 42.6267 52.2365C42.0701 52.1931 41.5498 51.9433 41.1679 51.5361C40.9424 51.3141 40.7338 51.0756 40.5436 50.8226C40.1775 50.3204 40.1869 50.3157 40.3888 49.715C39.6143 49.3395 39.788 48.6542 39.9006 48.0065C39.9382 47.7718 40.032 47.5559 40.1306 47.2414C39.9429 47.3071 39.8161 47.3212 39.7223 47.3916C39.0858 47.8061 38.5733 48.3851 38.2391 49.0672C38.2062 49.1423 38.1921 49.2268 38.1452 49.2878C38.0889 49.3582 37.9856 49.4662 37.934 49.4521C37.8401 49.4239 37.7603 49.3254 37.6993 49.2409C37.6618 49.1846 37.6665 49.0907 37.643 48.9734H37.0516L37.3003 48.1661C37.2395 48.0893 37.1785 48.0126 37.1173 47.9361L37.6336 46.6031C37.352 46.7251 37.2065 46.8096 37.0516 46.8425C36.9108 46.8753 36.7512 46.8425 36.6057 46.8425C36.6057 46.6969 36.5588 46.5139 36.6245 46.4106C37.3238 45.378 38.056 44.4018 39.4078 44.1765Z" fill="black"/>
<path fill-rule="evenodd" clip-rule="evenodd" d="M37.8306 50.6349C37.8166 50.4565 37.8119 50.2829 38.0043 50.3439C38.0794 50.372 38.1639 50.5692 38.1357 50.6584C38.0888 50.8461 37.9527 50.8086 37.8306 50.6349Z" fill="black"/>
<path fill-rule="evenodd" clip-rule="evenodd" d="M56.2343 0.0422106C57.295 -0.0141129 58.3605 -0.00941927 59.4212 0.0422106C60.5806 0.0891469 61.7446 0.154858 62.8945 0.333216C64.7767 0.633608 66.64 1.07012 68.4799 1.61458C70.6531 2.2623 72.7981 3.01797 74.8445 4.01302C80.5095 6.79524 85.2974 11.0861 88.6813 16.4136C90.0519 18.6149 91.1971 20.9335 92.1499 23.3555C93.1778 25.9651 94.2433 28.5654 95.074 31.2548C96.0315 34.3245 96.6182 37.4786 97.2237 40.628C97.679 42.9936 98.078 45.3686 98.5849 47.7201C99.3171 51.1089 100.129 54.4789 100.904 57.8583C101.777 61.6695 102.781 65.4385 103.861 69.1934C104.339 70.8597 104.766 72.54 105.184 74.225C105.7 76.2714 106.132 78.3366 106.376 80.4347C106.522 81.7395 106.686 83.049 106.719 84.3632C106.773 85.7404 106.746 87.1195 106.639 88.4936C106.465 90.4321 106.17 92.333 105.578 94.1823C104.649 97.0105 103.192 99.6368 101.284 101.922L100.674 102.654L100.758 102.762C100.96 102.654 101.171 102.57 101.354 102.443C102.293 101.795 103.105 101.002 103.846 100.143C105.724 97.9841 107.231 95.5763 108.423 92.9666C109.59 90.4427 110.114 87.6693 109.948 84.8936C109.835 82.9035 109.493 80.9791 108.54 79.2002C108.479 79.0735 108.47 78.9186 108.399 78.6323C108.634 78.7966 108.784 78.8576 108.873 78.9703C109.376 79.5804 109.906 80.1812 110.352 80.8383C111.901 83.157 112.511 85.776 112.633 88.5359C112.76 91.762 111.996 94.9608 110.427 97.7823C108.737 100.857 106.264 103.133 103.264 104.851C102.359 105.372 101.415 105.837 100.472 106.297C99.7348 106.663 99.3077 107.287 98.9791 108.01C98.8269 108.301 98.7348 108.619 98.7081 108.947C98.6815 109.274 98.721 109.604 98.8242 109.915C98.8871 110.127 98.9078 110.348 98.8853 110.568C98.8618 110.929 98.5238 111.295 98.2282 111.328C97.9747 111.356 97.6414 111.126 97.5241 110.784C97.394 110.429 97.2997 110.063 97.2425 109.69C97.0547 108.216 96.515 106.874 95.7969 105.607C94.875 104.019 93.72 102.58 92.3705 101.335C91.1917 100.181 89.7453 99.3355 88.1603 98.8759C87.0973 98.578 86.0107 98.3723 84.9123 98.2611C84.5603 98.2235 84.2083 98.0733 83.8797 98.308C84.7246 98.5896 85.5835 98.8243 86.4049 99.1528C88.4419 99.9649 90.2537 101.171 91.9434 102.57C93.389 103.767 94.6657 105.118 95.6701 106.719C96.1301 107.446 96.5431 108.197 96.7356 109.047C96.8623 109.624 96.9327 110.22 97.0501 110.807C97.1111 111.098 97.0407 111.319 96.8013 111.483C96.5807 111.638 96.2287 111.643 96.0362 111.436C95.8729 111.241 95.7458 111.019 95.6607 110.779C95.5199 110.436 95.4824 110.033 95.2946 109.723C93.4728 106.799 91.2212 104.166 88.6156 101.913C87.8646 101.27 87.0714 100.692 86.0951 100.397C84.3303 99.8616 82.5608 99.4439 80.6975 99.6738C79.6977 99.7912 78.6933 99.824 77.6935 99.9226C76.4514 100.063 75.264 100.512 74.239 101.227C72.8169 102.21 71.5045 103.343 70.3245 104.607C68.7803 106.212 67.3112 107.888 65.8421 109.559C65.2038 110.286 64.603 111.056 64.3683 112.051C64.3491 112.131 64.3304 112.21 64.312 112.29C64.2912 112.388 64.2384 112.476 64.1619 112.541C64.0854 112.606 63.9896 112.643 63.8896 112.647H62.4346C62.2186 112.647 62.0497 112.422 62.0966 112.206C62.2046 111.699 62.3078 111.192 62.4252 110.685C62.7772 109.16 63.317 107.705 64.1524 106.381C64.2651 106.198 64.3402 105.968 64.6406 106.006L64.6875 106.236L64.8142 106.597C66.1284 104.555 67.4943 102.682 69.4891 101.27C70.8174 100.312 72.2301 99.4955 73.6664 98.6882C73.5163 98.6461 73.3581 98.6429 73.2064 98.6788C72.4461 98.8806 71.681 99.0731 70.93 99.3077C69.0432 99.8898 67.3441 100.857 65.7201 101.964C65.0301 102.434 64.3214 102.87 63.7769 103.527C61.7189 106.04 60.028 108.833 58.7547 111.821C58.6782 112.004 58.6154 112.192 58.567 112.384C58.5474 112.459 58.5037 112.525 58.4426 112.573C58.3815 112.62 58.3064 112.646 58.2291 112.647H55.9104C55.7227 112.647 55.6194 112.408 55.7414 112.262C56.3188 111.605 56.8961 110.939 57.5109 110.314C58.8017 108.995 60.2332 107.817 61.1579 106.165C61.2846 105.94 61.4536 105.743 61.6038 105.531C62.7209 103.969 64.1383 102.682 65.4432 101.298C65.828 100.894 66.2645 100.547 66.6635 100.171C66.7996 100.045 66.9123 99.9038 67.0343 99.7724L66.9498 99.6551L66.3162 99.8475C66.1566 99.9273 65.9876 99.993 65.8374 100.082C64.6734 100.758 63.5188 101.453 62.3501 102.115C60.4351 103.194 58.4778 104.175 56.6755 105.452C55.3566 106.39 53.9015 107.132 52.5028 107.953C52.409 108.01 52.2963 108.024 52.1273 108.085C52.0569 107.451 52.7985 107.141 52.6343 106.508C52.4794 106.573 52.3339 106.602 52.2353 106.686C51.7143 107.137 51.1698 107.578 50.6958 108.075C50.0011 108.812 49.3628 109.601 48.701 110.366C48.1143 111.037 47.5276 111.708 46.9503 112.389C46.8852 112.467 46.8042 112.53 46.7128 112.575C46.6214 112.619 46.5215 112.644 46.4199 112.647H41.1255C41.1552 112.583 41.1803 112.517 41.2006 112.45C41.332 112.027 41.5995 111.643 41.5902 111.136C41.163 111.051 40.8298 111.14 40.5951 111.497C40.3727 111.827 40.1599 112.164 39.9568 112.506C39.9098 112.581 39.8441 112.647 39.7596 112.647H39.3231C39.234 112.647 39.187 112.544 39.2433 112.473C39.5766 112.06 39.9004 111.638 40.2243 111.215C40.229 111.206 40.1961 111.159 40.168 111.103C40.1023 111.122 40.0272 111.131 39.9568 111.164C39.1307 111.586 38.3046 112.013 37.4832 112.45C37.2401 112.578 36.9696 112.646 36.6947 112.647H24.4162C24.2941 112.647 24.2331 112.478 24.327 112.398C25.3127 111.563 26.2138 110.643 26.946 109.559C28.5184 107.231 29.4712 104.644 30.0767 101.913C30.0955 101.819 30.0626 101.711 30.0485 101.486C29.8749 101.711 29.7716 101.824 29.6918 101.955C29.2612 102.673 28.7336 103.329 28.1241 103.903C26.8099 105.114 25.3549 106.006 23.5103 106.081C22.1163 106.137 20.7504 106.081 19.4503 105.485C17.2912 104.499 16.0615 102.809 15.7236 100.453C15.6062 99.6551 15.6438 99.6504 14.8693 99.4251C12.8376 98.88 10.929 97.9512 9.24637 96.6887C7.46265 95.357 6.13728 93.5034 5.45391 91.3849C4.86033 89.4967 4.60607 87.5183 4.70293 85.5413C4.71232 85.3818 4.77803 85.2269 4.81558 85.072C4.96578 85.1799 5.03149 85.2738 5.05026 85.3817C5.20515 86.0999 5.32719 86.8274 5.50085 87.5408C5.9045 89.207 6.70711 90.6574 7.92276 91.8589C9.13372 93.0605 10.6028 93.8256 12.194 94.356C13.8743 94.9098 15.5593 95.0037 17.2161 94.2809C18.3227 93.7806 19.3148 93.0586 20.1309 92.1593C21.6704 90.526 22.6326 88.5922 23.1724 86.419C23.2146 86.2595 23.1958 86.0858 23.2052 85.9027C23.1348 85.9309 23.0832 85.9309 23.0644 85.9544C22.9189 86.189 22.764 86.4237 22.6279 86.6678C21.2949 89.024 19.4409 90.831 17.0143 91.9951C15.3669 92.793 13.6443 93.1919 11.8044 92.7414C9.96348 92.3441 8.33776 91.2726 7.24688 89.7374C6.3162 88.4597 5.72219 86.9682 5.51963 85.4005C5.3379 84.0177 5.36956 82.6152 5.6135 81.242C5.84818 79.1815 7.80073 75.7504 9.09617 75.2764C9.0023 75.5721 8.93189 75.8021 8.84741 76.0274C8.64558 76.5718 8.39213 77.0928 8.23724 77.6466C7.87942 78.8971 7.79932 80.2107 8.00255 81.4954C8.15744 82.4905 8.42498 83.448 8.96005 84.3116C9.65002 85.4193 10.584 86.2219 11.8701 86.4941C12.3864 86.6021 12.9262 86.5598 13.4565 86.5786C14.1152 86.6013 14.7595 86.3827 15.2683 85.9638C16.038 85.363 16.5919 84.5932 16.9862 83.7061C17.7747 81.946 18.1126 80.0592 18.4365 78.1723C18.6712 76.783 18.873 75.3843 19.0607 73.9809C19.2438 72.662 19.394 71.3384 19.5489 70.0148C19.6709 68.9259 19.7742 67.837 19.8962 66.748C20.0089 65.6779 20.1403 64.6124 20.2529 63.5423C20.3656 62.4768 20.4735 61.4067 20.5768 60.3365C20.6378 59.6794 20.68 59.0223 20.7364 58.3652L20.91 56.408C21.0133 55.2346 21.1025 54.0612 21.2151 52.8972C21.2527 52.5123 21.1212 52.2776 20.7927 52.0664C19.9401 51.5167 19.1637 50.857 18.4834 50.1044C18.0141 49.5928 17.601 49.0343 17.1598 48.4992C16.9955 48.3021 16.897 48.0439 16.6154 47.9454C16.8947 48.9418 17.3303 49.8876 17.9061 50.7475C18.1877 51.1793 18.521 51.5735 18.8261 51.9913C19.1218 52.3949 19.6803 52.531 19.9244 53.052C19.7929 53.0661 19.7085 53.099 19.6427 53.0802C19.2965 52.9993 18.9522 52.9101 18.6102 52.8127C16.27 52.1362 14.1734 50.8019 12.5695 48.9686C10.5277 46.6828 9.49043 43.9182 9.23698 40.8815C9.08953 39.2251 9.11155 37.5581 9.30269 35.9062C9.64063 33.0807 10.3353 30.3396 11.4148 27.7158C12.1423 25.951 13.0013 24.2379 13.8837 22.5435C14.8459 20.6989 16.0709 19.0232 17.4743 17.4931C19.8774 14.8694 22.6561 12.6868 25.5755 10.6967C28.9408 8.39687 32.5127 6.48187 36.2629 4.9095C38.6942 3.88629 41.149 2.96634 43.6976 2.31862C46.7719 1.53948 49.8462 0.769723 53.0004 0.370765C54.0752 0.229956 55.15 0.0985342 56.2296 0.0422106H56.2343ZM47.5651 107.151C47.2366 107.432 46.8752 107.672 46.5936 107.996C45.4765 109.263 44.4157 110.572 43.4582 112.074L43.2517 112.581C43.4217 112.54 43.5745 112.447 43.6882 112.314C44.5049 111.422 45.3357 110.54 46.1242 109.62C46.6123 109.047 47.0395 108.423 47.476 107.808C47.5886 107.648 47.6168 107.432 47.6919 107.245L47.5651 107.151ZM55.3096 89.8078C54.2152 90.6522 53.1903 91.583 52.2447 92.5912L50.508 94.4029C50.0197 94.929 49.4132 95.3312 48.7385 95.5763C48.0381 95.8436 47.2963 95.9866 46.5466 95.9987C46.3401 95.9987 46.1383 96.0269 45.8379 96.0551C45.9693 96.3273 46.0397 96.5103 46.1383 96.6699C46.8423 97.8058 47.5511 98.9323 48.2504 100.068C48.8887 101.101 49.5458 102.124 50.1232 103.194C50.4423 103.781 50.616 104.447 50.8554 105.09C51.2168 105.217 51.5125 105.006 51.8035 104.865C53.1646 104.231 54.5211 103.579 55.8729 102.931C56.8726 102.457 57.924 102.058 58.858 101.476C60.4867 100.467 62.0497 99.3406 63.6361 98.2611C63.7065 98.2141 63.7582 98.1296 63.8333 98.0452C63.7253 97.956 63.6549 97.8715 63.5704 97.8386C62.2233 97.3176 61.0969 96.4305 59.9563 95.5763C59.1248 94.9688 58.3316 94.3104 57.5813 93.605C56.7209 92.7384 56.0636 91.6916 55.657 90.54C55.5678 90.3101 55.4457 90.0942 55.3049 89.8078H55.3096ZM27.866 91.047C27.5844 91.4976 27.4107 91.9575 27.2464 92.4222C26.6559 94.1398 25.7748 95.7433 24.6415 97.1628C23.7027 98.3362 22.5059 99.0965 21.0649 99.4767C19.9854 99.7583 18.8871 99.8334 17.7794 99.8053C17.5541 99.7959 17.3241 99.8146 17.0378 99.8287C17.1129 100.016 17.1364 100.139 17.2021 100.228C17.6714 100.908 18.2816 101.382 19.0795 101.612C19.8164 101.828 20.5627 101.772 21.4169 101.72C22.2665 101.547 23.0269 101.18 23.6933 100.622C24.8104 99.6879 25.5802 98.491 26.2091 97.1862C27.0305 95.4824 27.4483 93.6613 27.8144 91.8167C27.8613 91.5679 27.8519 91.3004 27.866 91.047ZM98.0123 69.522C98.0498 69.6581 98.0873 69.7895 98.139 70.0242C98.2516 70.7517 98.3784 71.4792 98.4769 72.202C98.6177 73.2299 98.7914 74.2532 98.843 75.2858C98.9228 76.9004 98.9697 78.5197 98.7773 80.1343C98.6036 81.6128 98.4816 83.1053 98.2329 84.5744C97.8236 87.0326 97.0979 89.4275 96.0738 91.6994C96.0362 91.7839 96.0268 91.8824 95.9799 92.0842C96.2005 91.9434 96.3413 91.8871 96.4399 91.7839C96.8388 91.3943 97.2378 91 97.6039 90.587C98.8759 89.1554 99.7536 87.4892 100.401 85.6915C101.246 83.3541 101.471 80.9463 101.082 78.5056C100.598 75.4547 99.533 72.5775 98.2798 69.6769C98.2425 69.5907 98.205 69.5046 98.1671 69.4187L98.0123 69.522ZM27.2089 38.9101C27.1638 39.1526 27.1933 39.4029 27.2934 39.6283C27.8754 40.8064 28.4668 41.9798 29.0722 43.1485C29.1896 43.3785 29.382 43.5709 29.2131 43.9135C27.8801 44.1952 26.5001 44.4721 25.0827 45.1104C25.3596 45.2888 25.5379 45.392 25.7022 45.5188C25.8994 45.669 26.2279 45.791 26.1246 46.082C26.0777 46.2369 25.7726 46.3073 25.5755 46.4199C25.6553 46.4669 25.7773 46.5185 25.89 46.5889C26.6691 47.0677 27.4389 47.5605 27.988 48.3162C28.6357 49.2173 29.0629 50.2124 28.8704 51.3389C28.4996 53.5402 27.4342 55.3284 25.6318 56.6521C25.3784 56.8398 25.1343 57.0416 24.8761 57.2247C24.6926 57.3487 24.5491 57.5235 24.4633 57.7277C24.3774 57.9319 24.3529 58.1567 24.3927 58.3746C24.4381 58.6897 24.5249 58.9975 24.6508 59.2899C25.0404 60.2098 25.6834 60.9326 26.411 61.5991C26.8005 61.9558 27.1572 62.3689 27.4529 62.8054C27.6297 63.0626 27.7339 63.3627 27.7545 63.674C27.7752 63.9854 27.7115 64.2966 27.5703 64.5749C27.4623 64.8096 27.3356 65.0396 27.2136 65.2696C27.0728 65.5512 27.0821 65.7905 27.3168 66.0299C27.5093 66.2271 27.6923 66.4477 27.8425 66.6776C28.0209 66.9499 28.2086 67.0484 28.5325 66.9123C29.0339 66.7191 29.5874 66.7092 30.0955 66.8842C30.8464 67.1001 31.5129 67.4756 32.1794 67.8698C32.7896 68.2312 33.4185 68.5692 34.0569 68.8977C34.3714 69.062 34.714 69.1324 35.0848 69.0198C35.418 68.9165 35.6668 69.0667 35.7654 69.3765C35.8592 69.6769 35.7513 69.8834 35.418 70.0289C35.0895 70.1697 34.775 70.3246 34.4371 70.4419C33.9677 70.6062 33.4936 70.7846 32.9633 70.8033C32.9022 70.3011 33.4796 70.3903 33.5594 70.057C32.5925 69.4657 30.5414 69.3765 29.7998 69.8975C30.0955 70.4232 29.964 70.8831 29.3492 71.3666C28.739 70.8972 29.2318 70.4185 29.3586 69.9585C29.2292 69.9314 29.0957 69.9307 28.9661 69.9564C28.8364 69.9822 28.7133 70.0339 28.6042 70.1084C28.495 70.183 28.4021 70.2788 28.3309 70.3901C28.2597 70.5015 28.2117 70.6261 28.1898 70.7564C28.1194 71.2305 28.5043 71.7702 29.0253 71.8078C29.5322 71.8406 30.0485 71.7843 30.5554 71.7514C30.8371 71.728 31.1187 71.6247 31.4895 71.7514C31.006 72.3288 30.3254 72.3475 29.8138 72.6432C29.8232 72.8779 30.1424 73.0469 29.903 73.2581C29.6543 73.4834 29.4571 73.2534 29.2835 73.1173C28.908 72.8216 28.5325 72.5259 28.1992 72.1926C27.7772 71.8173 27.5138 71.2954 27.4623 70.7329C27.4418 70.4543 27.3735 70.1812 27.2605 69.9256C27.1103 69.5783 27.1103 69.2826 27.4154 69.0338C27.3309 68.893 27.284 68.7851 27.2042 68.6959C26.8004 68.1757 26.4892 67.5898 26.2842 66.964C26.0355 66.3209 26.0683 65.7248 26.5095 65.1757C26.6222 65.0349 26.7442 64.8941 26.8099 64.7298C26.9178 64.4778 26.992 64.2127 27.0305 63.9413C27.1103 63.1668 26.7301 62.5942 26.1763 62.1248C25.3033 61.3926 24.4866 60.6135 24.0172 59.5386C23.9937 59.487 23.9046 59.4588 23.8435 59.4166C23.7919 59.4964 23.7309 59.5433 23.7262 59.595C23.637 60.4633 23.515 61.3316 23.4821 62.2093C23.4164 63.9788 23.7544 65.6967 24.2425 67.3911C24.7964 69.3155 25.599 71.1366 26.533 72.8967C27.7862 75.2529 29.0535 77.5997 30.3442 79.9371C30.6024 80.3971 30.9544 80.8242 31.3205 81.2044C32.2498 82.1525 33.442 82.4811 34.7187 82.4858C35.6668 82.4858 36.6149 82.4576 37.5583 82.3637C38.9429 82.2229 40.3276 82.0211 41.7075 81.8334C42.5664 81.716 43.4207 81.5658 44.2796 81.4579C45.2653 81.3358 46.0632 81.8005 46.7297 82.4435C47.4807 83.1757 48.1612 83.9784 48.8277 84.7904C49.8603 86.0342 50.6911 87.4188 51.428 88.8597C51.6627 89.3197 51.7565 89.3291 52.118 89.0005C52.7281 88.4326 53.3383 87.8647 53.9672 87.3108C54.2817 87.0339 54.3803 86.7476 54.2817 86.3111C54.0077 85.0848 53.8738 83.8314 53.8828 82.575C53.8921 81.8381 53.9109 81.1012 53.9672 80.3643C54.0377 79.3129 54.1081 78.2521 54.2489 77.2101C54.7444 73.604 55.3109 70.008 55.948 66.4242C56.3563 64.1102 56.8022 61.8057 57.2058 59.4917C57.4875 57.863 57.7597 56.2343 57.9662 54.5962C58.1258 53.3149 58.2244 52.0147 58.2619 50.724C58.3135 49.1657 58.276 47.6027 58.2713 46.0398C58.2713 45.6783 58.2901 45.3122 58.2244 44.9602C58.0929 44.2937 58.1774 44.2327 57.464 44.0684C56.5238 43.8509 55.5728 43.6832 54.615 43.5662C53.9297 43.4817 53.6434 43.3175 53.5777 42.6744C53.5495 42.4444 53.4603 42.2145 53.3852 41.9892C53.343 41.8718 53.2726 41.7639 53.1693 41.5667L53.052 42.8058C53.0097 43.2564 52.9159 43.3503 52.4559 43.3456C52.1977 43.3456 51.9396 43.3081 51.6861 43.3081C49.452 43.3081 47.2178 43.2705 44.993 43.4583C44.5471 43.4958 44.181 43.3879 43.9323 42.9748C43.7445 42.665 43.5192 42.3834 43.3033 42.1018C43.0076 41.7075 42.8997 41.6653 42.4491 41.8202C41.5338 42.1394 40.628 42.4679 39.7174 42.8058C38.5775 43.266 37.5104 43.8889 36.5492 44.6551C36.0972 45.0098 35.5831 45.2772 35.0332 45.4437C34.8783 45.4906 34.7046 45.4812 34.4371 45.5047C34.5309 45.1949 34.5497 44.9696 34.6577 44.8006C34.9581 44.3078 35.2913 43.8384 35.6199 43.3644C35.7278 43.2095 35.8498 43.0687 35.9625 42.9185L35.8921 42.8105L34.9487 42.9842C34.2634 43.172 33.5594 43.3128 32.8976 43.5568C32.2029 43.8056 31.649 43.6648 31.0858 43.2189C29.762 42.167 28.6024 40.9236 27.6454 39.5297L27.2089 38.9101ZM67.5365 80.9791L66.8466 81.4016C65.814 82.0305 64.7814 82.6501 63.7535 83.2884C63.317 83.5606 62.8898 83.8516 62.4862 84.1708C62.0872 84.4994 61.9042 84.9265 62.1482 85.4475C62.3688 85.9168 62.5847 86.3862 62.8382 86.8274C63.0588 87.2029 63.4202 87.4751 63.8379 87.5173C64.3542 87.5643 64.9081 87.5737 65.415 87.461C66.4335 87.2263 67.161 86.4988 67.8932 85.7854C68.0951 85.6107 68.2414 85.3807 68.314 85.1238C68.3866 84.8668 68.3823 84.5943 68.3016 84.3398C68.0857 83.4949 67.9308 82.6266 67.7477 81.7724C67.6961 81.5283 67.621 81.2889 67.5365 80.9791ZM66.3303 69.6722C65.767 71.038 65.3681 72.4743 64.8048 73.9434C64.0961 75.9757 63.4249 78.0268 62.7631 80.153C62.9321 80.1061 63.0166 80.1061 63.0776 80.0686C64.3026 79.3176 65.5276 78.5478 66.7621 77.7969C67.0155 77.642 67.0953 77.4307 67.0672 77.1491C67.0108 76.539 66.9545 75.9194 66.9076 75.3045L66.5884 71.146C66.5509 70.6625 66.4945 70.1791 66.4523 69.6909C66.4101 69.6909 66.3725 69.6816 66.3303 69.6722ZM80.7913 31.513L81.256 32.8507C81.6315 33.9349 82.0023 35.0238 82.3825 36.2019L85.1048 45.3639C85.9825 48.3209 86.8508 51.2872 87.7238 54.2489C88.2589 56.0419 88.8268 57.8255 89.3337 59.6278C89.6717 60.8341 89.9251 62.0638 90.2067 63.378C90.4133 64.3449 90.6151 65.3165 90.8028 66.3819C90.9624 66.8795 90.9108 67.4427 91.1642 67.9074L91.2816 67.8792L90.9624 66.1801C90.7841 65.2132 90.601 64.2463 90.432 63.1856C90.3616 62.857 90.2959 62.5238 90.2161 62.1952C89.7702 60.3365 89.3854 58.4591 88.855 56.6239C87.935 53.4088 86.9165 50.2218 85.9543 47.0207C85.1799 44.4439 84.443 41.8577 83.6638 39.2856C83.34 38.2202 82.9598 37.1735 82.6031 36.0236L82.0539 34.4465C81.8803 33.9443 81.7019 33.4327 81.5142 32.9352C81.3264 32.4376 81.1199 31.9495 80.9181 31.4614C80.8758 31.4771 80.8336 31.4927 80.7913 31.5083V31.513ZM29.2177 67.1376C28.9221 67.1329 28.678 67.2033 28.5888 67.5272C28.8629 67.7378 29.1964 67.8567 29.5419 67.8668C29.8874 67.8769 30.2273 67.7778 30.5132 67.5835C30.0863 67.421 29.6542 67.2723 29.2177 67.1376ZM24.5476 56.2296C24.4256 56.1029 24.2801 56.0043 24.1956 56.239C24.1392 56.3892 24.1627 56.5676 24.1486 56.7694C24.5335 56.5957 24.5335 56.5957 24.5476 56.2296ZM24.8386 50.6489C24.7558 50.6631 24.6766 50.6937 24.6057 50.7388C24.5348 50.7839 24.4735 50.8427 24.4256 50.9117C24.337 51.0687 24.2962 51.2482 24.3082 51.428C24.3317 52.1415 24.3552 52.8643 24.4302 53.573C24.4809 53.9279 24.5853 54.2729 24.74 54.5962C25.0263 55.2346 25.4769 55.3801 26.0918 55.0703C26.3499 54.9436 26.3734 54.8168 26.2091 54.554C25.9983 54.2295 25.7964 53.8992 25.6037 53.5636C25.5333 53.2445 25.2939 52.9488 25.4488 52.5921C25.6365 52.1696 25.0921 52.0476 25.1014 51.7003V51.0385C25.0874 50.8601 25.0733 50.6301 24.8386 50.6489ZM24.7588 46.1055C23.9864 46.0921 23.2261 46.2988 22.5669 46.7016C22.2102 46.9128 22.1726 47.0301 22.3322 47.4432C22.4918 47.8515 22.6608 48.2552 22.872 48.6353C23.1724 49.1845 23.2944 49.222 23.8576 48.9967C24.3524 48.7768 24.8963 48.691 25.4347 48.748C26.3828 48.8512 27.1103 49.3863 27.8003 49.9871L28.2321 50.3485C28.2649 50.3203 28.2978 50.2875 28.3353 50.264C28.2462 49.7712 28.1711 49.2033 27.636 49.0249C26.8991 48.7761 26.1153 48.6729 25.2516 48.4757L24.1252 48.4523C25.2516 47.6591 26.2467 48.2458 27.3497 48.4945C27.054 47.9548 26.6316 47.8046 26.2702 47.5887C25.8853 47.354 25.4722 47.1568 25.0967 46.9128C24.8151 46.7391 24.5335 46.5373 24.7588 46.1055ZM72.7887 47.6309C71.7092 47.584 70.7845 48.0064 69.935 48.6213C69.7754 48.7433 69.6534 48.9263 69.4421 49.1704C69.8505 49.2924 70.1462 49.3863 70.5311 49.4755C70.7376 49.4051 70.9441 49.3347 71.1412 49.2596C72.5775 48.7245 74.0043 48.7198 75.3843 49.4051C75.9757 49.7008 76.4967 49.5928 77.1021 49.3816C77.0083 49.2361 76.9613 49.1282 76.8909 49.0484C76.3186 48.4392 75.5919 47.9964 74.7882 47.767C74.1311 47.5605 73.4552 47.6591 72.7887 47.6309ZM37.502 30.4288C37.4596 30.635 37.4628 30.8481 37.5114 31.053C37.8869 32.5597 38.2436 34.071 38.6472 35.5683C39.1354 37.3847 39.9145 39.0885 40.7875 40.7453C40.8814 40.919 41.0739 41.1208 41.2475 41.1537C41.6589 41.2059 42.076 41.1218 42.435 40.9143L40.2196 36.9717C39.1401 34.8689 38.3187 32.6535 37.502 30.4288ZM48.7996 2.3327C47.8608 2.29515 46.8986 2.35148 45.9693 2.49228C44.8616 2.65656 43.7633 2.90063 42.6838 3.20572C41.3367 3.58121 40.0131 4.05057 38.6848 4.48708C38.497 4.54809 38.3375 4.66543 38.1685 4.75931C38.2999 4.82502 38.4032 4.84379 38.497 4.82502C39.8441 4.50585 41.2194 4.42606 42.5946 4.40259C43.2235 4.3932 43.8572 4.44483 44.4814 4.51993C45.3732 4.63258 46.2744 4.74522 47.1568 4.94236C49.2971 5.43049 51.259 6.35045 53.0942 7.55201C55.2721 8.98826 57.2622 10.6498 58.9941 12.6117C59.9563 13.7007 60.8481 14.8412 61.6226 16.0803C62.4205 17.3664 63.101 18.7135 63.73 20.0981C65.0114 22.919 65.8703 25.8806 66.5462 28.9033C66.7339 29.7153 66.8747 30.5367 67.0155 31.3628C67.0953 31.8509 67.3206 32.1466 67.8134 32.2546C68.3861 32.386 68.7522 32.7474 68.846 33.4327C68.832 33.9114 68.5644 34.2494 68.2406 34.5591C67.7071 35.0239 67.2783 35.5966 66.9827 36.2395C67.1273 36.2167 67.2624 36.1532 67.3722 36.0564C67.7477 35.6528 68.1326 35.2491 68.4752 34.8126C68.8439 34.3723 69.0582 33.8233 69.0854 33.2496C69.1277 33.0149 69.1887 32.7803 69.1981 32.5456C69.2309 31.9636 69.1183 31.8415 68.5269 31.757C68.4095 31.7383 68.2969 31.6913 68.1842 31.6866C67.7994 31.6538 67.5975 31.3909 67.5412 31.0718C67.3863 30.1424 67.5224 29.4055 68.7005 29.1568C69.1042 29.0723 69.5172 29.016 69.9209 28.9596C70.6625 28.8517 71.3994 28.7109 72.141 28.6452C72.7981 28.5889 73.0328 28.8001 73.2017 29.429C73.2393 29.5651 73.2862 29.6965 73.3003 29.8374C73.3895 30.6775 73.2627 30.8934 72.6385 31.1891C72.5118 31.2501 72.3803 31.3018 72.2724 31.3863C72.1638 31.4657 72.0807 31.5749 72.033 31.7007C71.85 32.3766 72.3757 33.4937 72.9999 33.7894L76.1587 35.2914C76.2667 35.343 76.3934 35.3618 76.5107 35.3993L76.5952 35.2773C76.5248 35.2397 76.445 35.2163 76.3887 35.1646C75.6117 34.5475 74.7523 34.042 73.8354 33.6627C73.567 33.5401 73.2963 33.4228 73.0234 33.3106C72.8461 33.238 72.6948 33.1136 72.5893 32.9537C72.4838 32.7937 72.429 32.6057 72.432 32.4142C72.4179 32.0152 72.6432 31.6913 73.0328 31.5364L73.3097 31.4191C73.7744 31.2126 73.8635 31.0624 73.8354 30.5414C73.831 30.442 73.8185 30.3431 73.7978 30.2457C73.4833 28.8658 73.2205 27.4765 72.8356 26.1153C71.9182 22.7904 70.6171 19.5834 68.9587 16.5591C67.2302 13.4179 65.0299 10.5607 62.4346 8.08709C60.8102 6.5126 58.9454 5.20704 56.9101 4.21954C55.4045 3.47579 53.7978 2.95709 52.1414 2.68003C51.0352 2.49952 49.9193 2.38355 48.7996 2.3327ZM80.336 30.2833C80.383 30.349 80.4205 30.4147 80.5144 30.4428L80.4111 30.2363L80.336 30.2833ZM19.2579 18.3849C19.2167 18.4158 19.1682 18.4352 19.1171 18.4412C19.0583 18.506 18.9956 18.5672 18.9293 18.6243C18.8824 18.6712 18.8354 18.7182 18.7181 18.812L17.0143 20.4736C16.6013 20.8725 16.2164 21.309 15.7658 21.6611C14.4328 22.6937 13.771 24.1487 13.2125 25.6741C13.1711 25.7801 13.1598 25.8954 13.1796 26.0074C13.2406 26.2655 13.3345 26.5143 13.4237 26.7959L13.771 26.9179C13.6912 27.1808 13.6302 27.4108 13.5504 27.6314C13.2782 28.4011 12.9966 29.1662 12.729 29.9359C12.7056 30.0063 12.7666 30.1049 12.8182 30.2973C13.1937 29.4759 13.5598 28.7484 13.8743 28.0021C14.9444 25.4488 16.146 22.9612 17.7184 20.6754C18.1408 20.0511 18.5726 19.4269 19.0467 18.7933C19.0654 18.7651 19.0795 18.7322 19.1499 18.6524C19.1546 18.5773 19.164 18.5022 19.2203 18.4647L19.2579 18.3849ZM80.1624 29.6872C80.176 29.6976 80.1869 29.7111 80.1943 29.7266C80.2016 29.7422 80.2052 29.7592 80.2046 29.7763C80.194 29.7912 80.1846 29.8069 80.1765 29.8233C80.1856 29.8552 80.1966 29.8865 80.2093 29.9171L80.2938 30.0204C80.3032 29.9876 80.3267 29.9453 80.3173 29.9218C80.3032 29.8749 80.2609 29.8374 80.2234 29.7435C80.2029 29.7248 80.1826 29.7061 80.1624 29.6872ZM19.7085 21.0274C19.6944 21.0462 19.6709 21.065 19.5817 21.0931C19.5583 21.1541 19.5301 21.2105 19.4362 21.3137C19.2554 21.5845 19.0611 21.8461 18.8542 22.0976C18.6289 22.4261 18.3098 22.3557 18.0047 22.29C17.3757 22.1586 16.9345 22.3651 16.6576 22.9612C16.2399 23.8389 15.7799 24.6978 15.3762 25.5896C15.1463 26.0965 14.8599 26.6034 14.8224 27.2793C15.2026 27.2934 15.5452 27.3122 15.8925 27.3169H16.9627C16.8614 27.7363 16.7376 28.1499 16.5919 28.556C16.545 28.8001 16.4886 29.0394 16.437 29.2835L16.5309 29.3023C16.6154 29.0864 16.7045 28.8705 16.8453 28.5842C17.1551 27.9177 17.4555 27.2465 17.7841 26.5847C17.8779 26.3969 17.9437 26.1153 18.3285 26.1529C18.3285 26.3547 18.3473 26.5471 18.3285 26.7349C18.3051 26.9461 18.2487 27.1573 18.1971 27.4061C18.8589 27.6079 18.6008 28.2227 18.7369 28.6686C19.2156 28.5654 19.225 27.7534 19.9009 27.9928V28.955L19.9807 28.9643L22.0412 23.9938C21.431 23.9938 20.8866 23.8999 20.3609 24.1487C20.2482 24.2003 20.0886 24.144 19.854 24.1299C20.206 23.4259 20.5064 22.8251 20.8443 22.1727C20.8734 22.11 20.9131 22.0529 20.9617 22.0037C20.9617 21.9333 20.957 21.8629 20.9992 21.8253L21.0274 21.7315C21.0039 21.7596 20.9804 21.7831 20.896 21.8113C20.8772 21.8676 20.8537 21.9239 20.7739 22.0225C20.739 22.0869 20.6871 22.1405 20.6237 22.1774C20.0464 22.9143 20.2013 22.9471 19.4128 22.6749C19.042 22.5482 19.0467 22.5435 19.1922 21.999C19.3236 21.7831 19.455 21.5625 19.6521 21.295C19.6521 21.2199 19.6474 21.1448 19.685 21.0978L19.7085 21.0274ZM29.4383 17.8827C29.4243 17.9108 29.4055 17.9343 29.3116 17.9578C28.8704 18.5445 28.4011 19.1124 27.9974 19.7273C27.2699 20.8444 26.5846 21.9849 25.8806 23.1208C25.2235 24.1721 24.2613 24.848 23.1817 25.3784C23.102 25.416 22.994 25.4066 22.8109 25.43C22.8673 25.1531 22.886 24.9184 22.9658 24.7119C23.2861 23.8852 23.6448 23.0739 24.0407 22.2806L24.0078 22.1867C23.9595 22.2342 23.9041 22.2738 23.8435 22.3041C23.7121 22.5388 23.5854 22.7734 23.407 23.0738C22.1867 25.0639 21.3278 26.9085 21.3325 27.5328C21.4451 27.5516 21.5578 27.5844 21.6751 27.5938C22.5059 27.6548 22.5575 27.6267 22.8954 26.8194C23.0362 26.4908 23.2568 26.2561 23.5854 26.1153L24.4068 25.7868C24.6133 25.7023 24.8057 25.5192 25.0921 25.6366C25.1061 25.8712 25.0451 26.1529 25.1578 26.3171C25.3549 26.6081 25.3643 26.9038 25.3784 27.223C25.3877 27.453 25.4582 27.683 25.5004 27.913C25.6365 27.7534 25.6834 27.6079 25.7351 27.4577C26.4016 25.6272 27.0352 23.7873 27.7439 21.9661C28.2133 20.7646 28.7765 19.6006 29.2928 18.4178C29.3539 18.277 29.3539 18.1033 29.4337 17.9859L29.4383 17.8827ZM48.1518 16.2869C48.1518 16.4981 48.1988 16.6811 48.2504 16.8642C48.4475 17.6152 48.6916 18.3567 48.8324 19.1171C48.9451 19.7414 48.9404 20.3844 48.9638 21.0227C48.9638 21.1776 48.8747 21.3372 48.8136 21.539C48.3724 21.2668 48.593 20.7974 48.3161 20.5299H47.7294C47.659 20.8678 47.6825 21.2433 47.5135 21.4686C47.2037 21.8676 46.786 22.1914 46.4058 22.5341C46.204 22.7124 46.0397 22.6186 45.9224 22.4167L45.7065 22.0084C45.4014 22.1727 45.1573 22.3322 44.8992 22.4449C44.3547 22.6843 43.7962 22.8908 43.2564 23.1349C42.8574 23.3132 42.834 23.3836 42.9278 23.8248C42.9935 24.1768 43.0874 24.5195 43.1484 24.8715C43.2094 25.2094 43.3831 25.3831 43.7257 25.4535C44.8194 25.6882 45.8942 25.9933 46.8095 26.6973C47.0817 26.2186 47.0817 26.2186 47.598 25.9886C47.7388 25.9229 47.8796 25.8478 48.0298 25.7914C48.4053 25.6506 48.5696 25.7117 48.7339 26.0731C48.8418 26.2984 48.9263 26.533 49.0436 26.8147C49.3252 26.1576 48.8465 25.5615 49.1234 24.8621C49.8603 25.707 50.2499 26.6926 50.8835 27.5234C50.9507 27.3793 50.9859 27.2224 50.9868 27.0634C50.9962 26.4814 50.9868 25.9041 50.9962 25.3221C50.9962 25.1625 51.0572 25.0076 51.0901 24.8527L51.2402 24.8386C51.7565 25.5662 51.8504 26.5002 52.301 27.2793C52.325 26.6657 52.3093 26.0511 52.2541 25.4394C52.2353 25.2282 52.2541 25.0921 52.4888 25.0264C52.8642 25.1954 53.0332 25.6835 53.4979 25.768C53.3571 24.4772 51.5125 20.4313 49.7524 18.0939C49.2173 17.4978 48.8136 16.7797 48.1565 16.2822L48.1518 16.2869ZM35.6339 19.5536C35.5448 19.7132 35.4931 19.7883 35.4603 19.8681C35.174 20.7364 34.8736 21.6047 34.6154 22.4777C34.4699 22.9706 34.2071 23.271 33.7002 23.3695C33.2777 23.4587 32.8647 23.6136 32.4423 23.7122C32.2639 23.7544 32.0245 23.7826 31.8884 23.6981C31.7758 23.623 31.7711 23.3742 31.7195 23.2006C31.4191 23.5573 31.3346 23.6089 30.9215 23.4212C30.2973 23.1302 29.6918 22.7875 29.0769 22.4777C28.8516 22.3604 28.6404 22.1821 28.279 22.3369C28.0772 22.9002 27.8519 23.5103 27.636 24.1299C27.1713 25.4441 27.2276 25.2658 28.0819 26.2561C28.2978 26.4814 28.5606 26.3969 28.8047 26.3641C29.0582 26.3218 29.3022 26.2233 29.5557 26.1951C30.1659 26.1341 30.776 25.8196 31.2783 26.1247C32.2358 25.8243 33.0947 25.5521 33.9583 25.2892C34.193 25.2188 34.376 25.3127 34.4934 25.5427C34.5966 25.7398 34.653 25.9792 34.8783 26.1106C35.0566 25.8478 34.8172 25.5098 35.174 25.2752L35.8311 26.4063L35.6339 19.5536ZM36.9388 21.2339C36.4882 21.187 36.4365 21.2809 36.4225 21.7409C36.4131 21.9192 36.4084 22.107 36.4319 22.2806C36.5727 23.2193 36.8965 24.0924 37.2485 24.956C37.2579 24.9841 37.3049 25.0029 37.3518 25.0264L37.7179 24.7917C37.962 24.9607 38.0981 25.2047 38.436 25.2047C39.3982 25.1954 40.3604 25.2705 41.3273 25.2611C41.792 25.2564 42.0689 25.4582 42.2895 25.8243C42.374 25.9651 42.4021 26.1857 42.7025 26.1341L42.327 24.2848C42.0924 23.3695 41.9281 22.4308 41.5197 21.5202C41.2522 21.7878 40.9847 21.8394 40.6749 21.7362C40.4684 21.6722 40.2562 21.6282 40.0413 21.6047C39.0087 21.4733 37.9761 21.3278 36.9435 21.2292L36.9388 21.2339ZM85.0672 13.128C85.485 13.8931 85.7947 14.6112 85.7196 15.4326C85.6445 16.2211 85.8417 17.0378 85.5131 17.8545C85.2925 17.6996 85.1001 17.4696 84.9874 17.5025C84.4383 17.6668 84.2177 17.235 83.922 16.9627C83.4554 16.5283 83.0075 16.0742 82.5796 15.6016L82.0915 15.0712C82.0556 15.101 82.0196 15.1308 81.9835 15.1604C82.1478 15.3763 82.3121 15.5969 82.4998 15.8926C82.6876 16.193 82.8941 16.4887 83.0724 16.7985C83.232 17.0707 83.3775 17.3523 83.2179 17.7607C82.8331 17.7137 82.4482 17.6715 82.0633 17.6105C81.7817 17.5635 81.5892 17.6105 81.4813 17.939C81.3358 18.399 81.3076 18.3896 80.7772 18.3614C80.8711 18.5586 80.9462 18.7369 81.0448 18.9059C81.2372 19.2532 81.1856 19.5536 80.904 19.8258C80.6224 20.1075 80.3501 20.3985 80.0685 20.6754C79.9601 20.7915 79.8204 20.8736 79.6663 20.912C79.5122 20.9503 79.3503 20.9431 79.2002 20.8913C78.1582 20.605 77.1021 20.3609 76.0555 20.0746C75.9053 20.0324 75.7598 19.8869 75.6518 19.7554C75.511 19.5677 75.4077 19.3471 75.2763 19.1453C75.0698 18.8167 74.8539 18.4976 74.638 18.1737C74.5671 18.3277 74.5442 18.4994 74.5723 18.6665C74.6286 19.2626 74.7131 19.854 74.7365 20.4501C74.76 20.9195 74.6239 21.0133 74.1686 20.9382C73.6805 20.8584 73.2017 20.7505 72.7136 20.666C72.4132 20.6097 72.0987 20.5346 71.7655 20.8068L72.1457 21.7831C72.5681 21.7831 72.9248 21.7362 73.2581 21.7925C74.084 21.9401 74.8389 22.3538 75.4077 22.9706C75.7738 23.3602 76.1306 23.7591 76.5389 24.1909L76.6234 24.1675C76.6046 24.1393 76.5858 24.1064 76.5765 23.9797C76.6422 23.7169 76.2854 23.4259 76.6609 23.1442C76.8064 23.2851 76.9613 23.4118 77.074 23.5667C77.3462 23.9328 77.595 24.313 77.8672 24.7729L78.2849 25.4347L78.3976 25.3737C77.7292 23.9126 77.0611 22.4513 76.3934 20.9899C76.6515 21.0227 76.783 21.0227 76.9003 21.065C77.8062 21.3935 78.7074 21.7315 79.6085 22.0788C79.9559 22.2102 80.2985 22.3604 80.6364 22.52C80.9274 22.6514 81.1621 22.6045 81.3733 22.3651C81.608 22.1023 81.8521 21.8394 82.0962 21.5813C82.3308 21.3419 82.5421 21.3654 82.7157 21.647C82.7908 21.7643 82.8378 21.8957 82.9035 22.0225C83.2367 22.6702 83.5746 23.3226 83.922 24.0548L84.6683 25.5004L84.7856 25.4488C84.5791 24.9513 84.4571 24.4256 84.1379 23.8811C83.8704 23.0269 83.3494 22.2572 83.171 21.3231C83.8093 21.4827 84.8701 22.8532 85.8323 24.7589L86.0998 25.1062L86.1843 25.0546C86.0943 24.8595 86.0128 24.6606 85.9402 24.4585C85.7243 23.7779 85.485 23.0973 85.3019 22.412C85.1986 22.0225 85.1329 21.6 85.4052 21.1917L85.9168 21.4639L85.7947 20.4923L85.9215 20.4172C86.0247 20.5111 86.1562 20.5862 86.2266 20.6989C86.5692 21.2058 86.8977 21.7315 87.2357 22.2478C87.2826 22.3229 87.3718 22.3839 87.4375 22.4496C87.2685 21.4311 86.4988 20.666 86.3627 19.5114L87.0902 20.0371C87.1559 19.2579 87.1465 18.5398 87.2873 17.8545C87.4375 17.1129 87.1794 16.4605 86.9916 15.7659C87.1043 15.7846 87.1606 15.794 87.2498 15.8832C87.6816 16.4652 88.1087 17.0519 88.5499 17.6245C88.6438 17.7513 88.7846 17.8451 88.8738 18.0329L89.0615 18.3286L89.1507 18.2582C89.0468 18.1447 88.9627 18.0146 88.9019 17.8733C88.3744 17.1122 87.8549 16.3455 87.3436 15.5734C86.3063 14.1137 85.6398 13.3815 85.0672 13.128ZM54.2301 14.6629C54.216 15.4185 54.6619 15.9536 54.554 16.6107L52.8267 17.0191C53.2491 17.6715 52.9769 18.1315 52.5826 18.5727C52.3479 18.8402 52.1508 19.1453 51.9114 19.4081C51.7378 19.5959 51.6955 19.7742 51.827 19.9995L52.5779 21.2903C52.714 21.5156 52.9159 21.6 53.1787 21.5907C53.5354 21.5766 53.8921 21.5907 54.2489 21.586C54.7933 21.5719 55.2627 21.6892 55.5396 22.229C55.5678 22.2947 55.6335 22.3416 55.7461 22.4731C55.7649 22.1961 55.7321 22.0131 55.7931 21.8629C55.8682 21.6751 55.9808 21.3982 56.131 21.356C56.5253 21.248 56.943 21.2433 57.3513 21.2152C57.4124 21.2105 57.4781 21.2996 57.5391 21.3513L57.8723 21.6564C57.9615 21.1401 57.4875 20.727 57.7597 20.2013L58.3511 20.3891C58.2291 19.8118 58.0225 19.2391 58.0178 18.6712C58.0178 18.0939 58.2572 17.5307 58.5576 16.9815C59.0598 17.2725 59.3086 17.7137 59.6559 18.169C60.5149 19.4128 61.3456 20.6707 61.9746 22.0835C62.749 21.7174 63.2419 22.4027 63.8849 22.4965C63.8708 21.999 63.2606 20.4266 62.9602 20.1873C62.8235 20.0834 62.652 20.0364 62.4815 20.0558C62.1999 20.1075 61.9229 20.2389 61.585 20.3515C61.4677 20.1685 61.3222 19.9854 61.2236 19.7789C60.6289 18.4718 59.8839 17.2384 59.0035 16.1038C58.6468 15.6626 58.2525 15.2496 57.9334 14.8835L56.0982 16.2211C55.8682 16.3854 55.657 16.362 55.4786 16.1414L54.6854 15.1698C54.568 15.029 54.4366 14.8928 54.2301 14.6629Z" fill="black"/>
</g>
<defs>
<clipPath id="clip0_16_94">
<rect width="112.647" height="112.647" fill="white"/>
</clipPath>
</defs>
</svg>
