<svg width="423" height="136" viewBox="0 0 423 136" fill="none" xmlns="http://www.w3.org/2000/svg">
<path d="M59.8 0H28.6C12.8047 0 0 12.8047 0 28.6V106.6C0 122.395 12.8047 135.2 28.6 135.2H59.8C75.5953 135.2 88.4 122.395 88.4 106.6V28.6C88.4 12.8047 75.5953 0 59.8 0Z" fill="#10100C"/>
<path d="M156 40.5601H127.92C117.007 40.5601 108.16 49.4069 108.16 60.3201V88.4001C108.16 99.3132 117.007 108.16 127.92 108.16H156C166.913 108.16 175.76 99.3132 175.76 88.4001V60.3201C175.76 49.4069 166.913 40.5601 156 40.5601Z" fill="#10100C"/>
<path d="M96.2001 89.96C108.262 89.96 118.04 80.1819 118.04 68.12C118.04 56.0581 108.262 46.28 96.2001 46.28C84.1382 46.28 74.3601 56.0581 74.3601 68.12C74.3601 80.1819 84.1382 89.96 96.2001 89.96Z" fill="#F7F1E6"/>
<path d="M96.2001 84.24C105.103 84.24 112.32 77.0228 112.32 68.12C112.32 59.2172 105.103 52 96.2001 52C87.2972 52 80.0801 59.2172 80.0801 68.12C80.0801 77.0228 87.2972 84.24 96.2001 84.24Z" fill="url(#paint0_linear_13_251)"/>
<path d="M96.2 80.6C103.092 80.6 108.68 75.0125 108.68 68.12C108.68 61.2275 103.092 55.64 96.2 55.64C89.3075 55.64 83.72 61.2275 83.72 68.12C83.72 75.0125 89.3075 80.6 96.2 80.6Z" stroke="#6E2117" stroke-width="2.08"/>
<path d="M96.2 56.16C98.8 63.44 100.88 65.52 108.16 68.12C100.88 70.72 98.8 72.8 96.2 80.08C93.6 72.8 91.52 70.72 84.24 68.12C91.52 65.52 93.6 63.44 96.2 56.16Z" fill="#B9432D" stroke="#5D1C14" stroke-width="1.56" stroke-linejoin="round"/>
<path d="M220.735 120.432V49.1818H234.904V57.8857H235.545C236.175 56.4912 237.086 55.0743 238.278 53.6349C239.492 52.1731 241.067 50.9586 243.001 49.9915C244.957 49.0019 247.386 48.5071 250.288 48.5071C254.066 48.5071 257.552 49.4967 260.746 51.4759C263.939 53.4325 266.492 56.39 268.404 60.3484C270.315 64.2842 271.271 69.2209 271.271 75.1584C271.271 80.9384 270.338 85.8189 268.471 89.7997C266.627 93.758 264.108 96.7605 260.914 98.8072C257.743 100.831 254.19 101.843 250.254 101.843C247.465 101.843 245.092 101.382 243.136 100.46C241.201 99.5381 239.616 98.3799 238.379 96.9854C237.142 95.5685 236.197 94.1404 235.545 92.701H235.107V120.432H220.735ZM234.803 75.0909C234.803 78.1721 235.23 80.8597 236.085 83.1538C236.94 85.4478 238.176 87.2358 239.796 88.5178C241.415 89.7772 243.383 90.407 245.7 90.407C248.039 90.407 250.018 89.766 251.637 88.484C253.256 87.1796 254.482 85.3803 255.314 83.0863C256.169 80.7698 256.596 78.1046 256.596 75.0909C256.596 72.0997 256.18 69.4683 255.348 67.1967C254.516 64.9252 253.29 63.1484 251.671 61.8665C250.051 60.5845 248.061 59.9435 245.7 59.9435C243.361 59.9435 241.381 60.562 239.762 61.799C238.165 63.036 236.94 64.7902 236.085 67.0618C235.23 69.3333 234.803 72.0097 234.803 75.0909ZM295.629 101.978C292.322 101.978 289.376 101.405 286.79 100.258C284.203 99.0883 282.157 97.3678 280.65 95.0962C279.165 92.8022 278.423 89.9459 278.423 86.5273C278.423 83.6486 278.952 81.2308 280.009 79.2741C281.066 77.3175 282.505 75.7431 284.327 74.5511C286.149 73.3591 288.218 72.4595 290.534 71.8523C292.873 71.245 295.325 70.8177 297.889 70.5703C300.903 70.2554 303.332 69.9631 305.176 69.6932C307.02 69.4008 308.358 68.9735 309.19 68.4112C310.022 67.849 310.439 67.0168 310.439 65.9148V65.7124C310.439 63.5758 309.764 61.9227 308.414 60.7532C307.087 59.5837 305.198 58.9989 302.747 58.9989C300.16 58.9989 298.103 59.5724 296.573 60.7195C295.044 61.844 294.032 63.2609 293.537 64.9702L280.245 63.8906C280.92 60.7419 282.247 58.0206 284.226 55.7266C286.205 53.41 288.758 51.6333 291.884 50.3963C295.033 49.1368 298.676 48.5071 302.814 48.5071C305.693 48.5071 308.448 48.8445 311.08 49.5192C313.733 50.1939 316.084 51.2397 318.13 52.6566C320.199 54.0735 321.83 55.8952 323.022 58.1218C324.214 60.3259 324.81 62.9685 324.81 66.0497V101H311.181V93.8143H310.776C309.944 95.4336 308.83 96.8617 307.436 98.0987C306.042 99.3132 304.366 100.269 302.409 100.966C300.453 101.641 298.192 101.978 295.629 101.978ZM299.744 92.06C301.858 92.06 303.725 91.6439 305.344 90.8118C306.964 89.9571 308.234 88.8101 309.157 87.3707C310.079 85.9313 310.54 84.3008 310.54 82.479V76.9801C310.09 77.2725 309.471 77.5424 308.684 77.7898C307.92 78.0147 307.054 78.2283 306.087 78.4308C305.12 78.6107 304.152 78.7794 303.185 78.9368C302.218 79.0717 301.341 79.1954 300.554 79.3079C298.867 79.5553 297.394 79.9489 296.135 80.4886C294.875 81.0284 293.897 81.7594 293.2 82.6815C292.502 83.5811 292.154 84.7056 292.154 86.055C292.154 88.0117 292.862 89.5073 294.279 90.5419C295.719 91.554 297.54 92.06 299.744 92.06ZM359.372 102.012C354.065 102.012 349.499 100.888 345.676 98.6385C341.875 96.367 338.951 93.2183 336.904 89.1925C334.88 85.1667 333.868 80.5336 333.868 75.2933C333.868 69.9856 334.891 65.33 336.938 61.3267C339.007 57.3009 341.942 54.1635 345.743 51.9144C349.544 49.6429 354.065 48.5071 359.305 48.5071C363.825 48.5071 367.784 49.328 371.18 50.9698C374.576 52.6116 377.264 54.9169 379.243 57.8857C381.222 60.8544 382.313 64.3404 382.515 68.3438H368.953C368.571 65.7573 367.559 63.677 365.917 62.1026C364.298 60.5058 362.172 59.7074 359.541 59.7074C357.314 59.7074 355.369 60.3146 353.705 61.5291C352.063 62.7211 350.781 64.4641 349.859 66.7582C348.937 69.0522 348.476 71.8298 348.476 75.0909C348.476 78.397 348.925 81.2083 349.825 83.5249C350.747 85.8414 352.04 87.6069 353.705 88.8214C355.369 90.0359 357.314 90.6431 359.541 90.6431C361.183 90.6431 362.656 90.3058 363.96 89.631C365.287 88.9563 366.378 87.978 367.233 86.696C368.11 85.3916 368.683 83.8285 368.953 82.0067H382.515C382.29 85.9651 381.211 89.4511 379.276 92.4648C377.365 95.4561 374.722 97.7951 371.349 99.4819C367.975 101.169 363.983 102.012 359.372 102.012ZM419.279 49.1818V59.9773H388.073V49.1818H419.279ZM395.158 36.767H409.529V85.0767C409.529 86.4036 409.731 87.4382 410.136 88.1804C410.541 88.9001 411.103 89.4061 411.823 89.6985C412.565 89.9909 413.42 90.1371 414.387 90.1371C415.062 90.1371 415.736 90.0808 416.411 89.9684C417.086 89.8335 417.603 89.7322 417.963 89.6648L420.223 100.359C419.504 100.584 418.492 100.843 417.187 101.135C415.883 101.45 414.297 101.641 412.43 101.708C408.967 101.843 405.931 101.382 403.322 100.325C400.735 99.2682 398.722 97.6264 397.283 95.3999C395.844 93.1733 395.135 90.362 395.158 86.9659V36.767Z" fill="#10100C"/>
<defs>
<linearGradient id="paint0_linear_13_251" x1="7.22362e-05" y1="-3.06714e-06" x2="41.6001" y2="41.6" gradientUnits="userSpaceOnUse">
<stop stop-color="#C65337"/>
<stop offset="1" stop-color="#8F2E1E"/>
</linearGradient>
</defs>
</svg>
