<svg width="1254" height="420" viewBox="0 0 1254 420" fill="none" xmlns="http://www.w3.org/2000/svg">
<g clip-path="url(#clip0_30_30)">
<path d="M632.163 64.4C632.163 44.625 648.79 28.7 668.391 28.7C687.993 28.7 704.62 44.8 704.62 64.4C704.62 84 688.518 100.625 668.391 100.625C648.264 100.625 632.163 84.525 632.163 64.4ZM524.702 33.6H587.708V386.4H524.702V33.6ZM700.245 134.4H636.713V386.4H700.245V134.4ZM1156.87 251.825C1204.64 222.425 1237.2 178.675 1249.97 134.225H1186.44C1169.82 176.575 1131.84 208.425 1090.18 221.9V33.6H1026.65V386.4H1090.18V281.4C1138.66 293.475 1176.99 335.475 1190.12 386.4H1254C1244.2 333.025 1207.8 282.975 1156.87 252V251.825ZM812.781 162.575C829.408 140.525 861.786 127.575 888.213 127.575C937.218 127.575 977.822 163.45 977.997 217.7V386.225H914.466V231.7C914.466 209.475 904.49 183.75 872.462 183.75C834.658 183.75 812.956 217.35 812.956 256.55V386.575H749.425V134.575H812.956V162.575H812.781Z" fill="black"/>
<path d="M210.021 420C326.058 420 420.042 326.025 420.042 210C420.042 93.975 326.058 0 210.021 0C93.9844 0 0 93.975 0 210C0 326.025 93.9844 420 210.021 420Z" fill="#00D66F"/>
<path d="M200.395 84H135.638C148.24 136.675 184.993 181.65 231.023 210C184.818 238.35 148.24 283.325 135.638 336H200.395C216.496 287.35 260.951 245 315.556 236.25V183.575C260.951 175 216.496 132.65 200.395 84Z" fill="#011E0F"/>
</g>
<defs>
<clipPath id="clip0_30_30">
<rect width="1254" height="420" fill="white"/>
</clipPath>
</defs>
</svg>
